<?xml version="1.0" encoding="utf-8"?>
<!DOCTYPE svg PUBLIC "-//W3C//DTD SVG 1.0//EN" "http://www.w3.org/TR/2001/REC-SVG-20010904/DTD/svg10.dtd">
<svg version="1.0" xmlns="http://www.w3.org/2000/svg" width="1952px" height="2148px" viewBox="0 0 1952 2148" preserveAspectRatio="xMidYMid meet">
 <g fill="#000000">
  <path d="M674.6 1866.4 c-40 -7.9 -78.5 -38.1 -96.6 -75.9 -14 -29.3 -33.5 -84.7 -44 -125 -16.2 -62.1 -23.4 -118.2 -23.4 -181.5 0.1 -54.1 4.8 -93.3 16.9 -140.6 25.2 -98.3 75.4 -178.6 142.5 -228.1 5.2 -3.8 12.9 -9.2 17 -11.9 19 -12.4 33.7 -32.3 40.7 -55.1 2.6 -8.7 2.7 -9.2 3.3 -48.3 0.7 -46.4 0.6 -45.8 10.4 -55.6 6.9 -6.8 11.8 -9 22.8 -10.1 l6.8 -0.6 0 -51.6 c0 -54.9 -0.6 -63.5 -5.1 -78.6 -5.4 -18.1 -15.9 -29.8 -33.2 -36.8 -5 -2.1 -7.2 -2.2 -55.2 -2.8 -55.4 -0.6 -55 -0.6 -68.9 -7.6 -9.4 -4.7 -20.8 -16.1 -25.9 -25.9 -5.6 -10.8 -7 -18.3 -6.4 -34.4 0.8 -22.9 5.3 -31.8 25.8 -51 63.4 -59.2 148.9 -137.4 155.4 -142.2 23.4 -17.5 51.7 -29.5 81.1 -34.5 10.3 -1.7 20.2 -1.8 169.9 -1.8 l159 0 11.5 2.3 c6.3 1.3 31.5 6.1 56 10.8 24.5 4.6 46.7 8.9 49.4 9.4 10.7 2.2 18.7 8.7 23.5 19 l2.6 5.5 0 63 0 63 -2.6 5.6 c-3.2 6.8 -9.6 13.4 -15.3 15.9 -2.2 1 -24.1 6.9 -48.6 13 -24.5 6.2 -44.8 11.5 -45.2 11.9 -0.4 0.3 2.2 10.7 5.8 23.1 19.7 68.4 43.4 140.4 60.7 184.5 l7.1 18 0.1 11 c0 10.1 -0.2 11.5 -2.8 16.7 -3.5 7.1 -10.1 13 -17.6 15.9 -4.6 1.7 -7.2 2 -15.1 1.7 -9.1 -0.3 -10.1 -0.6 -19.3 -5.2 -18.1 -9 -49.6 -29.6 -68.7 -45 -32.6 -26.2 -66.6 -61.9 -96.6 -101.4 l-9.3 -12.3 -2.6 8.3 c-3.5 11.6 -6.2 25.4 -7.5 38.3 -1 11.4 -1.4 88.4 -0.4 92.1 0.5 1.8 1.6 2.2 8.1 2.8 15.8 1.3 26.6 9.6 31.6 24.1 0.6 1.7 1.3 19.4 1.7 41.5 0.7 43.4 1.2 46.4 9 62.9 8.5 17.7 18.1 28.2 38.7 42.2 50.9 34.7 91.1 81.8 120 140.4 37.6 76.4 56.5 172.9 52.3 266.9 -2.5 58.2 -10.4 106.8 -27 167.6 -11.7 42.8 -33.1 100.8 -44 119.1 -9.9 16.7 -26.7 35 -42 45.8 -14.5 10.2 -33.8 18.6 -49.8 21.7 -10.8 2.1 -446.1 1.9 -456.6 -0.2z m443.3 -69.9 c3.5 -0.9 10 -3.4 14.5 -5.7 10.2 -5.3 22.4 -17.1 28.5 -27.5 13.4 -22.8 33 -78.9 45.5 -130.3 6.3 -25.9 12.8 -62.1 11.4 -63.5 -0.3 -0.3 -7.3 0.2 -15.4 1.2 -18.3 2.1 -63.6 2.4 -82.7 0.5 -39.4 -4 -83.8 -16 -115.8 -31.4 -41.7 -20.1 -65.1 -35.4 -106.4 -69.3 -56.6 -46.7 -99.2 -70 -149.8 -82 -32.2 -7.6 -68.2 -8.5 -103.2 -2.4 -18.2 3.1 -51.7 11.9 -56.1 14.7 -1.2 0.7 -4.2 21 -6.6 43.2 -1.8 17.3 -1.5 68.7 0.6 90.5 4.2 44.6 11 80.8 23.6 125.4 12 42.7 29.7 88.7 40.6 105.9 8.9 13.9 25.4 25.9 41.6 30.2 7.1 1.8 14 1.9 215.3 1.9 181.8 0.1 208.8 -0.1 214.4 -1.4z m63.9 -293.6 c5.4 -0.6 17 -2.2 25.7 -3.7 l16 -2.7 -0.1 -23 c-0.1 -41.7 -5.3 -78.1 -16.9 -119.6 -18.1 -64.2 -47.7 -118.1 -86.1 -156.4 -13 -12.9 -22.4 -20.7 -39.4 -32.5 -43.1 -30 -64.2 -59.9 -74.1 -104.8 -1.7 -7.8 -2.2 -14.3 -2.6 -32.9 l-0.5 -23.3 -101.4 0 -101.4 0 0 16.3 c0 25 -2.3 40.5 -8.6 59.5 -11.4 34.5 -31.4 59.6 -68.4 85.8 -10.2 7.3 -23 17.2 -28.5 22.1 -33.6 30 -65.8 78.6 -84.2 127.2 l-2.4 6.3 3.3 -0.6 c25.7 -4.8 57 -7 88.3 -6.3 56.6 1.4 98.3 11.4 143.8 34.6 36.6 18.7 57.8 32.9 97.7 65.5 38.9 31.9 54.5 42.3 87.9 59.1 45.9 23 105.4 34.5 151.9 29.4z m-219.8 -598.4 l0 -29.5 -60.5 0 -60.5 0 0 23.4 c0 12.8 0.3 26.1 0.6 29.5 l0.7 6.1 59.8 0 59.9 0 0 -29.5z m204 -80.1 c-2.4 -6.2 -22.3 -71.8 -28 -91.9 -3.4 -12.1 -6.3 -22.6 -6.6 -23.3 -0.5 -1.8 -2.7 -1 -14.9 5 -9.6 4.8 -19.8 11.1 -25.8 16 l-2.8 2.3 6.7 9.5 c17 24.1 41.7 54.3 59.3 72.3 6.8 7 12.5 12.7 12.7 12.7 0.2 0 -0.1 -1.2 -0.6 -2.6z m-198.4 -28.4 c17.2 -70.3 60.7 -122.3 125.4 -149.8 6.3 -2.7 15 -6.1 19.3 -7.7 l7.7 -2.8 0 -49.8 0 -49.9 -127.7 0 c-76.6 0 -130.8 0.5 -135.3 1 -11 1.5 -22.3 4.6 -32.3 9 -17.6 7.7 -24.3 13.2 -90.2 74.1 -34.1 31.5 -66 61 -70.9 65.6 l-8.9 8.3 35.9 0 c19.8 0 39.7 0.5 44.4 1 25.9 3 48.3 13.7 66.9 32 18.6 18.3 29.3 39.7 34.6 69.3 l1.7 9.7 63.6 -0.2 63.5 -0.3 2.3 -9.5z m244.4 -187 c10.7 -2.8 21.9 -5.8 24.8 -6.6 l5.2 -1.5 0 -24.4 c0 -22.3 -0.1 -24.4 -1.7 -24.9 -1 -0.3 -10.6 -2.1 -21.3 -4.1 -10.7 -1.9 -21.4 -4 -23.7 -4.5 -2.3 -0.6 -4.4 -1 -4.7 -1 -0.3 0 -0.6 16.4 -0.6 36.5 0 28.7 0.3 36.3 1.3 36 0.6 -0.2 10 -2.7 20.7 -5.5z"/>
  <path d="M1526.4 786.6 c-5 -2.2 -7.8 -7 -8.2 -14.3 -0.3 -3.4 -0.2 -7.4 0.2 -8.7 1 -4.2 5.5 -8.4 12.9 -12.3 14.4 -7.4 25.4 -21.9 29.7 -38.9 2.6 -10 2.5 -18.2 -0.2 -28 -3.2 -11.7 -3.4 -18.5 -0.9 -23.7 2.9 -6.1 6.3 -7.7 15.6 -7.7 12.8 0 16.2 3.5 20.7 21.5 2.8 11.3 3.1 34.9 0.6 46 -5 22.1 -16.9 41.5 -33.9 54.9 -12 9.5 -18.7 12.6 -26.8 12.6 -3.6 -0.1 -8 -0.7 -9.7 -1.4z"/>
  <path d="M1488 734.4 c-10.1 -3.7 -17.1 -10.7 -21 -21 -2.8 -7.6 -2.8 -21.2 0.1 -28.9 2.7 -7.3 10.4 -15.6 17.7 -19.2 5.2 -2.5 6.7 -2.8 17.2 -2.8 13.4 0 17.8 1.5 25.5 8.6 6 5.5 9.2 12 10.7 21.3 2.7 17.8 -4.2 32.9 -18.4 40.3 -4.7 2.4 -6.6 2.7 -16.3 3 -8.3 0.2 -12.1 -0.1 -15.5 -1.3z"/>
  <path d="M1416.1 667.2 c-5.6 -2.8 -7.5 -6.3 -7.9 -14.5 -0.4 -10.1 1.2 -12.8 11.8 -19.9 15 -10 25 -22.8 30.6 -39.3 3.8 -11 4 -25.5 0.6 -36.5 -5.4 -17.1 -15.4 -30.4 -30.9 -40.7 -11 -7.3 -12.5 -9.6 -12.1 -19 0.4 -7.7 1.8 -10.7 7.2 -14.7 2.2 -1.7 4.2 -2.1 9.9 -2.1 6.7 0 7.8 0.3 15.2 4.5 15.4 8.8 32.3 27.5 40.1 44.5 6.2 13.9 7.7 20.9 8.1 41 0.4 15.1 0.1 19.5 -1.5 27.5 -3.6 17.5 -11.4 33.2 -23.4 47.1 -6.4 7.5 -19.8 18 -27.3 21.5 -6.2 3 -15.4 3.2 -20.4 0.6z"/>
  <path d="M1600.6 640.1 c-5.1 -3.4 -7 -7.6 -7 -15.7 0 -6.2 0.3 -7.7 2.7 -11 7.6 -10.8 9.9 -14.9 12.2 -21.9 3.4 -10.2 4.1 -18.2 2.1 -27.3 -2 -9.7 -5.1 -16.2 -11.7 -24.7 -5.4 -7 -5.4 -7 -5.7 -15 -0.2 -6.7 0 -8.5 1.7 -11.3 3.3 -5.2 7.5 -7.2 15.6 -7.2 9.2 0 12.6 1.9 19.1 10.5 24.6 32.1 24 86.2 -1.4 117.4 -5.4 6.7 -8.4 8.1 -17.2 8.1 -5.7 0 -8.2 -0.5 -10.4 -1.9z"/>
  <path d="M1379.1 609.5 c-10.2 -3.2 -19.5 -12.5 -22.3 -21.9 -0.7 -2.3 -1.2 -8.6 -1.2 -14.1 0 -8.1 0.4 -10.9 2.1 -14.7 6.7 -14.8 20.4 -22.6 37.9 -21.5 13.7 0.8 23.9 6.9 30 17.9 2.8 5.1 2.9 5.7 2.9 18.8 0 12.8 -0.1 13.8 -2.7 18.7 -3.6 6.7 -8.5 11.6 -15.1 15 -4.6 2.4 -6.5 2.7 -16.2 3 -7.5 0.2 -12.4 -0.2 -15.4 -1.2z"/>
  <path d="M1536.9 609.5 c-10.7 -3.4 -19.6 -12.2 -22.5 -22.2 -2.5 -8.7 -1.6 -24.2 1.8 -30.8 3.5 -6.7 10 -12.8 17.3 -16.2 5.4 -2.5 7.1 -2.8 16.5 -2.8 9.4 0 11.1 0.3 16.5 2.8 13.2 6.2 20.5 18.1 20.5 33.4 0 15.6 -6.2 26.9 -18.2 33.3 -5.9 3.2 -7 3.5 -16.8 3.7 -7.2 0.2 -12 -0.2 -15.1 -1.2z"/>
  <path d="M1565.3 493.4 c-7.7 -3.8 -9.4 -14.2 -4.8 -28.7 8.2 -25.7 -4.9 -54.3 -32.1 -70.2 -9.2 -5.4 -10.6 -7.9 -10.2 -18.2 0.3 -8.1 0.4 -8.4 4.1 -12 3.6 -3.7 4 -3.8 11.8 -4.2 7.5 -0.3 8.5 -0.1 14.4 2.9 22 11.2 40.5 34.9 47.1 60.6 2.4 9.3 2.5 11.1 2.1 28.4 -0.4 19.2 -1.5 25.8 -5.8 34.7 -3 6.2 -7 8.3 -16 8.3 -4.7 0 -8.6 -0.6 -10.6 -1.6z"/>
  <path d="M1489.9 485.7 c-10.2 -2.9 -17.5 -9.3 -22.2 -19.4 -1.8 -4.1 -2.2 -6.6 -2.2 -16.3 0 -10.4 0.3 -12.1 2.6 -17.1 3.3 -6.9 9.1 -12.9 16.1 -16.6 5 -2.6 6.1 -2.8 17.8 -2.8 11.6 0 12.9 0.2 17.5 2.6 6.3 3.4 12.9 10 15.8 15.9 3.3 6.7 3.7 25.2 0.7 33.2 -2.9 7.8 -8.7 14 -16.7 18 -5.7 2.8 -7.8 3.3 -15.7 3.5 -5.3 0.2 -11 -0.3 -13.7 -1z"/>
 </g>
</svg>