<?xml version="1.0" standalone="no"?>
<!DOCTYPE svg PUBLIC "-//W3C//DTD SVG 20010904//EN"
 "http://www.w3.org/TR/2001/REC-SVG-20010904/DTD/svg10.dtd">
<svg version="1.0" xmlns="http://www.w3.org/2000/svg"
 width="476.000000pt" height="524.000000pt" viewBox="0 0 476.000000 524.000000"
 preserveAspectRatio="xMidYMid meet">

<g transform="translate(0.000000,524.000000) scale(0.100000,-0.100000)"
fill="#000000" stroke="none">
<path d="M3727 4349 c-26 -15 -20 -46 11 -64 15 -9 39 -33 52 -53 21 -30 25
-47 25 -111 0 -69 2 -76 21 -79 29 -4 44 18 50 74 8 67 -10 128 -53 175 -46
51 -83 71 -106 58z"/>
<path d="M3630 4217 c-54 -27 -63 -94 -20 -137 44 -44 130 -8 130 55 0 47 -8
64 -41 80 -34 18 -37 18 -69 2z"/>
<path d="M2051 4090 c-69 -11 -184 -68 -242 -122 -26 -24 -100 -93 -165 -153
-65 -61 -140 -130 -166 -153 -73 -68 -87 -144 -38 -212 38 -53 71 -63 215 -67
215 -6 230 -24 230 -272 l0 -155 -31 -8 c-52 -13 -59 -30 -64 -163 -5 -112 -7
-125 -33 -164 -15 -23 -56 -63 -90 -88 -159 -121 -259 -256 -332 -449 -113
-300 -109 -650 11 -1019 68 -207 121 -286 229 -344 l50 -26 575 0 575 0 46 23
c25 12 64 38 87 58 74 63 150 252 208 514 24 111 27 146 27 315 1 171 -2 201
-25 300 -69 290 -178 473 -365 612 -121 90 -143 133 -143 283 0 83 -3 101 -21
124 -14 17 -30 26 -50 26 l-29 0 1 138 c1 123 14 227 30 227 3 0 39 -40 81
-90 116 -139 229 -235 343 -290 48 -24 56 -25 82 -13 15 7 34 25 40 40 12 23
9 39 -28 139 -56 157 -149 461 -144 469 3 4 55 20 117 35 161 39 158 35 158
231 0 188 -2 192 -120 213 -41 8 -102 21 -135 29 -47 12 -141 16 -445 18 -212
1 -409 -1 -439 -6z m689 -280 c0 -116 -2 -131 -17 -136 -71 -20 -167 -81 -223
-140 -65 -70 -94 -119 -121 -204 l-17 -55 -165 -3 -164 -2 -7 41 c-13 84 -69
156 -156 201 -38 19 -65 24 -169 28 l-124 5 109 100 c60 55 140 130 179 166
139 130 128 127 543 128 l332 1 0 -130z m248 99 l53 -11 -3 -66 -3 -65 -65
-18 c-36 -10 -66 -18 -67 -19 -2 0 -3 45 -3 99 0 89 2 99 18 96 9 -2 41 -9 70
-16z m-179 -536 c24 -82 46 -155 49 -163 9 -27 -99 84 -159 164 -65 85 -65 84
-2 122 65 38 64 38 112 -123z m-453 -340 l-1 -78 -155 0 -155 0 -3 78 -3 77
159 0 159 0 -1 -77z m105 -318 c9 -133 58 -216 183 -309 94 -71 145 -126 200
-215 86 -140 134 -304 143 -488 l6 -121 -49 -9 c-75 -12 -223 -7 -295 11 -96
24 -232 97 -339 181 -224 178 -344 235 -539 255 -66 7 -127 7 -195 0 -54 -6
-100 -9 -102 -7 -3 2 18 49 45 103 58 116 129 205 209 265 157 118 204 194
219 351 l6 68 251 -2 251 -3 6 -80z m-609 -861 c113 -29 194 -76 363 -209 126
-98 286 -182 405 -212 56 -13 111 -18 218 -17 162 0 150 10 127 -101 -37 -177
-106 -368 -148 -413 -49 -53 -36 -52 -614 -52 l-538 0 -40 23 c-65 37 -125
174 -182 417 -27 116 -41 354 -29 473 7 65 8 66 43 78 122 40 273 45 395 13z"/>
<path d="M3449 4038 c-10 -19 -7 -25 30 -56 54 -44 71 -79 71 -142 0 -60 -17
-97 -62 -135 -41 -34 -50 -49 -42 -69 17 -45 119 20 155 99 26 57 25 153 -2
210 -23 50 -92 115 -120 115 -10 0 -23 -10 -30 -22z"/>
<path d="M3900 3980 c-9 -16 -6 -29 15 -63 30 -53 32 -95 5 -147 -33 -64 -24
-99 21 -85 29 10 69 99 69 155 -1 70 -49 160 -85 160 -8 0 -19 -9 -25 -20z"/>
<path d="M3340 3895 c-50 -54 -18 -135 54 -135 66 0 102 60 72 118 -26 50 -87
58 -126 17z"/>
<path d="M3725 3895 c-53 -52 -18 -135 57 -135 70 0 103 86 53 135 -15 16 -36
25 -55 25 -19 0 -40 -9 -55 -25z"/>
<path d="M3815 3630 c-4 -6 -3 -34 0 -63 9 -72 -14 -127 -66 -162 -30 -19 -39
-32 -37 -48 7 -53 93 -19 142 56 39 61 47 175 14 215 -13 15 -44 16 -53 2z"/>
<path d="M3609 3591 c-16 -16 -29 -39 -29 -50 0 -57 51 -99 104 -85 68 17 78
117 15 149 -40 21 -57 19 -90 -14z"/>
</g>
</svg>
